<?xml version="1.0" standalone="no"?>
<!DOCTYPE svg PUBLIC "-//W3C//DTD SVG 20010904//EN"
 "http://www.w3.org/TR/2001/REC-SVG-20010904/DTD/svg10.dtd">
<svg version="1.0" xmlns="http://www.w3.org/2000/svg"
 width="632.000000pt" height="648.000000pt" viewBox="0 0 632.000000 648.000000"
 preserveAspectRatio="xMidYMid meet">

<g transform="translate(0.000000,648.000000) scale(0.100000,-0.100000)"
fill="#000000" stroke="none">
<path d="M4650 5304 c-107 -62 -199 -115 -205 -117 -5 -2 35 -51 90 -108 284
-294 438 -558 506 -864 19 -87 17 -322 -4 -408 -64 -257 -236 -480 -451 -581
-95 -45 -162 -59 -255 -54 -85 5 -161 34 -220 85 l-34 29 63 59 c123 118 219
300 236 449 l7 59 -54 -32 c-71 -42 -249 -131 -263 -131 -6 0 -40 -40 -75 -89
-177 -251 -444 -417 -776 -483 -82 -16 -167 -21 -463 -28 -200 -4 -366 -11
-369 -14 -4 -3 12 -6 34 -6 93 0 237 -65 304 -137 62 -68 92 -142 97 -242 9
-164 -38 -281 -163 -407 -133 -134 -271 -187 -490 -187 -149 -1 -261 25 -390
87 -344 167 -616 556 -688 984 l-12 72 -353 -204 c-194 -112 -355 -206 -358
-209 -3 -3 6 -54 21 -114 147 -611 525 -1108 1040 -1365 184 -93 325 -136 534
-163 407 -55 910 58 1208 271 194 139 355 347 434 563 47 129 80 290 82 397 1
52 3 94 4 94 2 0 26 -18 54 -39 293 -222 680 -299 1041 -207 51 13 94 23 95
22 1 -1 -120 -73 -269 -159 l-272 -157 65 -29 c372 -169 818 -212 1279 -125
47 9 90 21 97 28 42 41 179 428 223 629 40 183 81 505 63 494 -4 -2 -154 -89
-333 -192 -179 -103 -341 -197 -360 -208 -26 -15 -11 5 56 74 137 143 216 253
303 427 170 338 215 780 120 1167 -34 139 -172 382 -329 580 -137 173 -395
409 -610 558 l-65 45 -195 -114z"/>
<path d="M2740 1049 c-487 -281 -889 -514 -893 -518 -9 -9 175 -93 318 -144
113 -41 245 -80 333 -98 l59 -12 104 68 c467 305 776 679 942 1143 15 39 26
72 24 72 -1 0 -400 -230 -887 -511z"/>
</g>
</svg>
