<?xml version="1.0" standalone="no"?>
<!DOCTYPE svg PUBLIC "-//W3C//DTD SVG 20010904//EN"
 "http://www.w3.org/TR/2001/REC-SVG-20010904/DTD/svg10.dtd">
<svg version="1.0" xmlns="http://www.w3.org/2000/svg"
 width="632.000000pt" height="648.000000pt" viewBox="0 0 632.000000 648.000000"
 preserveAspectRatio="xMidYMid meet">
<metadata>
Created by potrace 1.16, written by Peter Selinger 2001-2019
</metadata>
<g transform="translate(0.000000,648.000000) scale(0.100000,-0.100000)"
fill="#000000" stroke="none">
<path d="M4650 5304 c-107 -62 -199 -115 -205 -117 -5 -2 35 -51 90 -108 396
-411 576 -835 511 -1206 -35 -204 -111 -350 -255 -494 -82 -81 -111 -103 -191
-143 -52 -25 -122 -51 -155 -57 -123 -23 -247 7 -334 79 l-33 28 62 60 c122
116 219 300 236 442 3 34 4 62 1 62 -3 0 -43 -23 -90 -50 -46 -28 -119 -66
-161 -84 -73 -32 -79 -37 -137 -120 -177 -248 -444 -413 -774 -478 -82 -16
-167 -21 -463 -28 -200 -4 -366 -11 -369 -14 -4 -3 12 -6 34 -6 86 0 216 -55
289 -122 101 -93 142 -273 96 -424 -61 -198 -225 -350 -438 -404 -101 -26
-291 -29 -386 -6 -162 38 -332 129 -460 245 -123 111 -263 315 -336 486 -40
96 -78 224 -95 323 l-12 72 -353 -204 c-194 -112 -355 -206 -358 -209 -3 -3 6
-54 21 -114 147 -611 525 -1108 1040 -1365 184 -93 325 -136 534 -163 407 -55
910 58 1208 271 194 139 355 347 434 563 47 129 80 290 82 397 1 52 3 94 4 94
2 0 26 -18 54 -39 293 -222 680 -299 1041 -207 51 13 94 23 95 22 1 -1 -120
-73 -269 -159 l-272 -157 65 -29 c372 -169 821 -213 1279 -125 47 9 90 21 97
26 15 12 97 205 140 333 48 139 88 298 112 445 20 124 45 340 39 345 -2 2
-147 -80 -323 -181 -176 -102 -340 -197 -365 -211 -42 -24 -39 -19 46 68 49
52 111 121 136 154 304 401 409 933 287 1445 -36 149 -188 408 -362 615 -145
173 -370 374 -572 514 l-70 48 -195 -113z"/>
<path d="M2740 1049 c-487 -281 -889 -514 -893 -518 -9 -9 166 -89 314 -144
98 -37 349 -107 383 -107 10 0 64 30 120 66 464 304 773 679 939 1142 15 39
26 72 24 72 -1 0 -400 -230 -887 -511z"/>
</g>
</svg>
